<svg xmlns="http://www.w3.org/2000/svg" data-name="Layer 1" viewBox="0 0 100 125" x="0px" y="0px"><path d="M63.49,42.13H11.86a.5.5,0,0,1,0-1H63.49c7.59,0,11.45-2.83,11.45-8.41a8.41,8.41,0,1,0-16.82,0,.5.5,0,0,1-1,0,9.41,9.41,0,1,1,18.82,0C75.94,37,73.78,42.13,63.49,42.13Z"/><path d="M81,73.54a12.21,12.21,0,0,1-12.2-12.2.51.51,0,0,1,.5-.5.5.5,0,0,1,.5.5,11.2,11.2,0,1,0,22.39,0C92.2,54.23,87,50.15,78,50.15H14.65a.5.5,0,1,1,0-1H78c9.54,0,15.23,4.56,15.23,12.19A12.21,12.21,0,0,1,81,73.54Z"/><path d="M54.88,72.87a7.91,7.91,0,0,1-6.84-4,.52.52,0,0,1,.19-.69.51.51,0,0,1,.68.19A6.88,6.88,0,0,0,61.76,65c0-3.48-.74-6.88-9.62-6.88H8.9a.5.5,0,0,1-.5-.5.5.5,0,0,1,.5-.5H52.14c9.33,0,10.62,3.79,10.62,7.88A7.9,7.9,0,0,1,54.88,72.87Z"/><path d="M49.5,34.05H7.44a.5.5,0,0,1-.5-.5.5.5,0,0,1,.5-.5H49.5a.5.5,0,0,1,.5.5A.5.5,0,0,1,49.5,34.05Z"/><path d="M38.52,66.18H12.26a.5.5,0,0,1-.5-.5.5.5,0,0,1,.5-.5H38.52a.5.5,0,0,1,.5.5A.5.5,0,0,1,38.52,66.18Z"/><text x="0" y="115" fill="#000000" font-size="5px" font-weight="bold" font-family="'Helvetica Neue', Helvetica, Arial-Unicode, Arial, Sans-serif">Created by Tyler Gobberdiel</text><text x="0" y="120" fill="#000000" font-size="5px" font-weight="bold" font-family="'Helvetica Neue', Helvetica, Arial-Unicode, Arial, Sans-serif">from the Noun Project</text></svg>